<?xml version="1.0" encoding="UTF-8" standalone="no"?><svg xmlns="http://www.w3.org/2000/svg" xmlns:xlink="http://www.w3.org/1999/xlink" contentScriptType="application/ecmascript" contentStyleType="text/css" height="887px" preserveAspectRatio="none" style="width:734px;height:887px;" version="1.1" viewBox="0 0 734 887" width="734px" zoomAndPan="magnify"><defs><filter height="300%" id="f8ynpo9aujzum" width="300%" x="-1" y="-1"><feGaussianBlur result="blurOut" stdDeviation="2.0"/><feColorMatrix in="blurOut" result="blurOut2" type="matrix" values="0 0 0 0 0 0 0 0 0 0 0 0 0 0 0 0 0 0 .4 0"/><feOffset dx="4.0" dy="4.0" in="blurOut2" result="blurOut3"/><feBlend in="SourceGraphic" in2="blurOut3" mode="normal"/></filter></defs><g><!--class customer--><rect fill="#FEFECE" filter="url(#f8ynpo9aujzum)" height="72.1758" id="customer" style="stroke: #A80036; stroke-width: 1.5;" width="174" x="232.5" y="11.5"/><ellipse cx="247.5" cy="30.6328" fill="#FFAAAA" rx="11" ry="11" style="stroke: #A80036; stroke-width: 1.0;"/><path d="M250.4023,28.106 L248.6675,28.106 L248.6675,34.2983 L250.062,34.2983 Q250.6182,34.2983 250.8589,34.5142 Q251.0996,34.73 251.0996,35.2114 Q251.0996,35.7012 250.8589,35.917 Q250.6182,36.1328 250.062,36.1328 L245.1313,36.1328 Q244.5835,36.1328 244.3428,35.917 Q244.1021,35.7012 244.1021,35.2114 Q244.1021,34.7217 244.3386,34.51 Q244.5752,34.2983 245.1313,34.2983 L246.5259,34.2983 L246.5259,28.106 L244.791,28.106 L244.7412,29.791 L244.7412,29.9985 Q244.7412,30.397 244.5212,30.6211 Q244.3013,30.8452 243.9111,30.8452 Q243.4463,30.8452 243.2263,30.6086 Q243.0063,30.3721 243.0063,29.8574 L243.0063,29.791 L243.0977,27.3091 Q243.1226,26.5703 243.301,26.4209 Q243.4795,26.2715 244.0273,26.2715 L251.166,26.2715 Q251.7139,26.2715 251.8923,26.4209 Q252.0708,26.5703 252.104,27.3091 L252.187,29.791 L252.187,29.8574 Q252.187,30.3804 251.9795,30.6128 Q251.772,30.8452 251.3071,30.8452 Q250.8589,30.8452 250.6638,30.6169 Q250.4688,30.3887 250.4521,29.791 Z "/><text fill="#000000" font-family="sans-serif" font-size="12" lengthAdjust="spacingAndGlyphs" textLength="53" x="306" y="28.1016">customer</text><text fill="#000000" font-family="sans-serif" font-size="12" lengthAdjust="spacingAndGlyphs" textLength="142" x="261.5" y="42.2344">(customer in our system)</text><line style="stroke: #A80036; stroke-width: 1.5;" x1="233.5" x2="405.5" y1="49.7656" y2="49.7656"/><text fill="#000000" font-family="sans-serif" font-size="11" font-weight="bold" lengthAdjust="spacingAndGlyphs" textLength="11" x="238.5" y="64.4004">id</text><text fill="#000000" font-family="sans-serif" font-size="11" lengthAdjust="spacingAndGlyphs" textLength="45" x="252.5" y="64.4004">INTEGER</text><text fill="#008000" font-family="sans-serif" font-size="11" lengthAdjust="spacingAndGlyphs" text-decoration="underline" textLength="80" x="238.5" y="77.3555">customername</text><line style="stroke: #008000; stroke-width: 1.0;" x1="238.5" x2="318.5" y1="79.3555" y2="79.3555"/><text fill="#000000" font-family="sans-serif" font-size="11" lengthAdjust="spacingAndGlyphs" textLength="39" x="321.5" y="77.3555">STRING</text><!--class project--><rect fill="#FEFECE" filter="url(#f8ynpo9aujzum)" height="123.9961" id="project" style="stroke: #A80036; stroke-width: 1.5;" width="130" x="254.5" y="179"/><ellipse cx="269.5" cy="198.1328" fill="#FFAAAA" rx="11" ry="11" style="stroke: #A80036; stroke-width: 1.0;"/><path d="M272.4023,195.606 L270.6675,195.606 L270.6675,201.7983 L272.062,201.7983 Q272.6182,201.7983 272.8589,202.0142 Q273.0996,202.23 273.0996,202.7114 Q273.0996,203.2012 272.8589,203.417 Q272.6182,203.6328 272.062,203.6328 L267.1313,203.6328 Q266.5835,203.6328 266.3428,203.417 Q266.1021,203.2012 266.1021,202.7114 Q266.1021,202.2217 266.3386,202.01 Q266.5752,201.7983 267.1313,201.7983 L268.5259,201.7983 L268.5259,195.606 L266.791,195.606 L266.7412,197.291 L266.7412,197.4985 Q266.7412,197.897 266.5212,198.1211 Q266.3013,198.3452 265.9111,198.3452 Q265.4463,198.3452 265.2263,198.1086 Q265.0063,197.8721 265.0063,197.3574 L265.0063,197.291 L265.0977,194.8091 Q265.1226,194.0703 265.301,193.9209 Q265.4795,193.7715 266.0273,193.7715 L273.166,193.7715 Q273.7139,193.7715 273.8923,193.9209 Q274.0708,194.0703 274.104,194.8091 L274.187,197.291 L274.187,197.3574 Q274.187,197.8804 273.9795,198.1128 Q273.772,198.3452 273.3071,198.3452 Q272.8589,198.3452 272.6638,198.1169 Q272.4688,197.8887 272.4521,197.291 Z "/><text fill="#000000" font-family="sans-serif" font-size="12" lengthAdjust="spacingAndGlyphs" textLength="41" x="312" y="195.6016">project</text><text fill="#000000" font-family="sans-serif" font-size="12" lengthAdjust="spacingAndGlyphs" textLength="98" x="283.5" y="209.7344">(project for user)</text><line style="stroke: #A80036; stroke-width: 1.5;" x1="255.5" x2="383.5" y1="217.2656" y2="217.2656"/><text fill="#000000" font-family="sans-serif" font-size="11" font-weight="bold" lengthAdjust="spacingAndGlyphs" textLength="11" x="260.5" y="231.9004">id</text><text fill="#000000" font-family="sans-serif" font-size="11" lengthAdjust="spacingAndGlyphs" textLength="45" x="274.5" y="231.9004">INTEGER</text><text fill="#000000" font-family="sans-serif" font-size="11" lengthAdjust="spacingAndGlyphs" text-decoration="underline" textLength="67" x="260.5" y="244.8555">customer_id</text><line style="stroke: #000000; stroke-width: 1.0;" x1="260.5" x2="327.5" y1="246.8555" y2="246.8555"/><text fill="#000000" font-family="sans-serif" font-size="11" lengthAdjust="spacingAndGlyphs" textLength="45" x="330.5" y="244.8555">INTEGER</text><text fill="#000000" font-family="sans-serif" font-size="11" lengthAdjust="spacingAndGlyphs" textLength="71" x="260.5" y="257.8105">name STRING</text><text fill="#000000" font-family="sans-serif" font-size="11" lengthAdjust="spacingAndGlyphs" textLength="103" x="260.5" y="270.7656">description STRING</text><text fill="#000000" font-family="sans-serif" font-size="11" lengthAdjust="spacingAndGlyphs" textLength="92" x="260.5" y="283.7207">oracleID INTEGER</text><text fill="#000000" font-family="sans-serif" font-size="11" lengthAdjust="spacingAndGlyphs" textLength="113" x="260.5" y="296.6758">created_at DATETIME</text><!--class oem--><rect fill="#FEFECE" filter="url(#f8ynpo9aujzum)" height="72.1758" id="oem" style="stroke: #A80036; stroke-width: 1.5;" width="130" x="167.5" y="424.5"/><ellipse cx="182.5" cy="443.6328" fill="#FFAAAA" rx="11" ry="11" style="stroke: #A80036; stroke-width: 1.0;"/><path d="M185.4023,441.106 L183.6675,441.106 L183.6675,447.2983 L185.062,447.2983 Q185.6182,447.2983 185.8589,447.5142 Q186.0996,447.73 186.0996,448.2114 Q186.0996,448.7012 185.8589,448.917 Q185.6182,449.1328 185.062,449.1328 L180.1313,449.1328 Q179.5835,449.1328 179.3428,448.917 Q179.1021,448.7012 179.1021,448.2114 Q179.1021,447.7217 179.3386,447.51 Q179.5752,447.2983 180.1313,447.2983 L181.5259,447.2983 L181.5259,441.106 L179.791,441.106 L179.7412,442.791 L179.7412,442.9985 Q179.7412,443.397 179.5212,443.6211 Q179.3013,443.8452 178.9111,443.8452 Q178.4463,443.8452 178.2263,443.6086 Q178.0063,443.3721 178.0063,442.8574 L178.0063,442.791 L178.0977,440.3091 Q178.1226,439.5703 178.301,439.4209 Q178.4795,439.2715 179.0273,439.2715 L186.166,439.2715 Q186.7139,439.2715 186.8923,439.4209 Q187.0708,439.5703 187.104,440.3091 L187.187,442.791 L187.187,442.8574 Q187.187,443.3804 186.9795,443.6128 Q186.772,443.8452 186.3071,443.8452 Q185.8589,443.8452 185.6638,443.6169 Q185.4688,443.3887 185.4521,442.791 Z "/><text fill="#000000" font-family="sans-serif" font-size="12" lengthAdjust="spacingAndGlyphs" textLength="25" x="233" y="441.1016">oem</text><text fill="#000000" font-family="sans-serif" font-size="12" lengthAdjust="spacingAndGlyphs" textLength="98" x="196.5" y="455.2344">(oem for project)</text><line style="stroke: #A80036; stroke-width: 1.5;" x1="168.5" x2="296.5" y1="462.7656" y2="462.7656"/><text fill="#000000" font-family="sans-serif" font-size="11" font-weight="bold" lengthAdjust="spacingAndGlyphs" textLength="11" x="173.5" y="477.4004">id</text><text fill="#000000" font-family="sans-serif" font-size="11" lengthAdjust="spacingAndGlyphs" textLength="45" x="187.5" y="477.4004">INTEGER</text><text fill="#008000" font-family="sans-serif" font-size="11" lengthAdjust="spacingAndGlyphs" text-decoration="underline" textLength="52" x="173.5" y="490.3555">oemname</text><line style="stroke: #008000; stroke-width: 1.0;" x1="173.5" x2="225.5" y1="492.3555" y2="492.3555"/><text fill="#000000" font-family="sans-serif" font-size="11" lengthAdjust="spacingAndGlyphs" textLength="39" x="228.5" y="490.3555">STRING</text><!--class session--><rect fill="#FEFECE" filter="url(#f8ynpo9aujzum)" height="130.6855" id="session" style="stroke: #A80036; stroke-width: 1.5;" width="128" x="343.5" y="395"/><ellipse cx="382.8" cy="411" fill="#FFAAAA" rx="11" ry="11" style="stroke: #A80036; stroke-width: 1.0;"/><path d="M385.7023,408.4731 L383.9675,408.4731 L383.9675,414.6655 L385.362,414.6655 Q385.9182,414.6655 386.1589,414.8813 Q386.3996,415.0972 386.3996,415.5786 Q386.3996,416.0684 386.1589,416.2842 Q385.9182,416.5 385.362,416.5 L380.4313,416.5 Q379.8835,416.5 379.6428,416.2842 Q379.4021,416.0684 379.4021,415.5786 Q379.4021,415.0889 379.6386,414.8772 Q379.8752,414.6655 380.4313,414.6655 L381.8259,414.6655 L381.8259,408.4731 L380.091,408.4731 L380.0412,410.1582 L380.0412,410.3657 Q380.0412,410.7642 379.8212,410.9883 Q379.6013,411.2124 379.2111,411.2124 Q378.7463,411.2124 378.5263,410.9758 Q378.3063,410.7393 378.3063,410.2246 L378.3063,410.1582 L378.3977,407.6763 Q378.4226,406.9375 378.601,406.7881 Q378.7795,406.6387 379.3273,406.6387 L386.466,406.6387 Q387.0139,406.6387 387.1923,406.7881 Q387.3708,406.9375 387.404,407.6763 L387.487,410.1582 L387.487,410.2246 Q387.487,410.7476 387.2795,410.98 Q387.072,411.2124 386.6071,411.2124 Q386.1589,411.2124 385.9638,410.9841 Q385.7688,410.7559 385.7521,410.1582 Z "/><text fill="#000000" font-family="sans-serif" font-size="12" lengthAdjust="spacingAndGlyphs" textLength="42" x="402.2" y="415.5352">session</text><line style="stroke: #A80036; stroke-width: 1.5;" x1="344.5" x2="470.5" y1="427" y2="427"/><text fill="#000000" font-family="sans-serif" font-size="11" font-weight="bold" lengthAdjust="spacingAndGlyphs" textLength="11" x="349.5" y="441.6348">id</text><text fill="#000000" font-family="sans-serif" font-size="11" lengthAdjust="spacingAndGlyphs" textLength="45" x="363.5" y="441.6348">INTEGER</text><text fill="#000000" font-family="sans-serif" font-size="11" font-weight="bold" lengthAdjust="spacingAndGlyphs" textLength="56" x="349.5" y="454.5898">project_id</text><text fill="#000000" font-family="sans-serif" font-size="11" lengthAdjust="spacingAndGlyphs" textLength="45" x="408.5" y="454.5898">INTEGER</text><text fill="#000000" font-family="sans-serif" font-size="11" font-weight="bold" lengthAdjust="spacingAndGlyphs" textLength="40" x="349.5" y="467.5449">type_id</text><text fill="#000000" font-family="sans-serif" font-size="11" lengthAdjust="spacingAndGlyphs" textLength="45" x="392.5" y="467.5449">INTEGER</text><text fill="#000000" font-family="sans-serif" font-size="11" lengthAdjust="spacingAndGlyphs" textLength="103" x="349.5" y="480.5">description STRING</text><text fill="#000000" font-family="sans-serif" font-size="11" lengthAdjust="spacingAndGlyphs" textLength="116" x="349.5" y="493.4551">finished_at DATETIME</text><text fill="#000000" font-family="sans-serif" font-size="11" lengthAdjust="spacingAndGlyphs" textLength="79" x="349.5" y="506.4102">vehicle STRING</text><text fill="#000000" font-family="sans-serif" font-size="11" lengthAdjust="spacingAndGlyphs" textLength="74" x="349.5" y="519.3652">state INTEGER</text><!--class paramset--><rect fill="#FEFECE" filter="url(#f8ynpo9aujzum)" height="91.8203" id="paramset" style="stroke: #A80036; stroke-width: 1.5;" width="137" x="138" y="603"/><ellipse cx="175.5" cy="619" fill="#FFAAAA" rx="11" ry="11" style="stroke: #A80036; stroke-width: 1.0;"/><path d="M178.4023,616.4731 L176.6675,616.4731 L176.6675,622.6655 L178.062,622.6655 Q178.6182,622.6655 178.8589,622.8813 Q179.0996,623.0972 179.0996,623.5786 Q179.0996,624.0684 178.8589,624.2842 Q178.6182,624.5 178.062,624.5 L173.1313,624.5 Q172.5835,624.5 172.3428,624.2842 Q172.1021,624.0684 172.1021,623.5786 Q172.1021,623.0889 172.3386,622.8772 Q172.5752,622.6655 173.1313,622.6655 L174.5259,622.6655 L174.5259,616.4731 L172.791,616.4731 L172.7412,618.1582 L172.7412,618.3657 Q172.7412,618.7642 172.5212,618.9883 Q172.3013,619.2124 171.9111,619.2124 Q171.4463,619.2124 171.2263,618.9758 Q171.0063,618.7393 171.0063,618.2246 L171.0063,618.1582 L171.0977,615.6763 Q171.1226,614.9375 171.301,614.7881 Q171.4795,614.6387 172.0273,614.6387 L179.166,614.6387 Q179.7139,614.6387 179.8923,614.7881 Q180.0708,614.9375 180.104,615.6763 L180.187,618.1582 L180.187,618.2246 Q180.187,618.7476 179.9795,618.98 Q179.772,619.2124 179.3071,619.2124 Q178.8589,619.2124 178.6638,618.9841 Q178.4688,618.7559 178.4521,618.1582 Z "/><text fill="#000000" font-family="sans-serif" font-size="12" lengthAdjust="spacingAndGlyphs" textLength="55" x="194.5" y="623.5352">paramset</text><line style="stroke: #A80036; stroke-width: 1.5;" x1="139" x2="274" y1="635" y2="635"/><text fill="#000000" font-family="sans-serif" font-size="11" font-weight="bold" lengthAdjust="spacingAndGlyphs" textLength="11" x="144" y="649.6348">id</text><text fill="#000000" font-family="sans-serif" font-size="11" lengthAdjust="spacingAndGlyphs" textLength="45" x="158" y="649.6348">INTEGER</text><text fill="#000000" font-family="sans-serif" font-size="11" lengthAdjust="spacingAndGlyphs" textLength="114" x="144" y="662.5898">productname STRING</text><text fill="#000000" font-family="sans-serif" font-size="11" lengthAdjust="spacingAndGlyphs" textLength="125" x="144" y="675.5449">productversion STRING</text><text fill="#000000" font-family="sans-serif" font-size="11" lengthAdjust="spacingAndGlyphs" textLength="72" x="144" y="688.5">mode STRING</text><!--class valueset--><rect fill="#FEFECE" filter="url(#f8ynpo9aujzum)" height="104.7754" id="valueset" style="stroke: #A80036; stroke-width: 1.5;" width="139" x="6" y="772"/><ellipse cx="45.3" cy="788" fill="#FFAAAA" rx="11" ry="11" style="stroke: #A80036; stroke-width: 1.0;"/><path d="M48.2023,785.4731 L46.4675,785.4731 L46.4675,791.6655 L47.862,791.6655 Q48.4182,791.6655 48.6589,791.8813 Q48.8996,792.0972 48.8996,792.5786 Q48.8996,793.0684 48.6589,793.2842 Q48.4182,793.5 47.862,793.5 L42.9313,793.5 Q42.3835,793.5 42.1428,793.2842 Q41.9021,793.0684 41.9021,792.5786 Q41.9021,792.0889 42.1386,791.8772 Q42.3752,791.6655 42.9313,791.6655 L44.3259,791.6655 L44.3259,785.4731 L42.591,785.4731 L42.5412,787.1582 L42.5412,787.3657 Q42.5412,787.7642 42.3212,787.9883 Q42.1013,788.2124 41.7111,788.2124 Q41.2463,788.2124 41.0263,787.9758 Q40.8063,787.7393 40.8063,787.2246 L40.8063,787.1582 L40.8977,784.6763 Q40.9226,783.9375 41.101,783.7881 Q41.2795,783.6387 41.8273,783.6387 L48.966,783.6387 Q49.5139,783.6387 49.6923,783.7881 Q49.8708,783.9375 49.904,784.6763 L49.987,787.1582 L49.987,787.2246 Q49.987,787.7476 49.7795,787.98 Q49.572,788.2124 49.1071,788.2124 Q48.6589,788.2124 48.4638,787.9841 Q48.2688,787.7559 48.2521,787.1582 Z "/><text fill="#000000" font-family="sans-serif" font-size="12" lengthAdjust="spacingAndGlyphs" textLength="53" x="64.7" y="792.5352">Value Set</text><line style="stroke: #A80036; stroke-width: 1.5;" x1="7" x2="144" y1="804" y2="804"/><text fill="#000000" font-family="sans-serif" font-size="11" font-weight="bold" lengthAdjust="spacingAndGlyphs" textLength="11" x="12" y="818.6348">id</text><text fill="#000000" font-family="sans-serif" font-size="11" lengthAdjust="spacingAndGlyphs" textLength="45" x="26" y="818.6348">INTEGER</text><text fill="#000000" font-family="sans-serif" font-size="11" lengthAdjust="spacingAndGlyphs" textLength="71" x="12" y="831.5898">name STRING</text><text fill="#000000" font-family="sans-serif" font-size="11" lengthAdjust="spacingAndGlyphs" textLength="127" x="12" y="844.5449">short_comment STRING</text><text fill="#000000" font-family="sans-serif" font-size="11" lengthAdjust="spacingAndGlyphs" textLength="92" x="12" y="857.5">comment STRING</text><text fill="#000000" font-family="sans-serif" font-size="11" lengthAdjust="spacingAndGlyphs" textLength="76" x="12" y="870.4551">values STRING</text><!--class user--><rect fill="#FEFECE" filter="url(#f8ynpo9aujzum)" height="91.8203" id="user" style="stroke: #A80036; stroke-width: 1.5;" width="107" x="354" y="603"/><ellipse cx="391.5" cy="619" fill="#FFAAAA" rx="11" ry="11" style="stroke: #A80036; stroke-width: 1.0;"/><path d="M394.4023,616.4731 L392.6675,616.4731 L392.6675,622.6655 L394.062,622.6655 Q394.6182,622.6655 394.8589,622.8813 Q395.0996,623.0972 395.0996,623.5786 Q395.0996,624.0684 394.8589,624.2842 Q394.6182,624.5 394.062,624.5 L389.1313,624.5 Q388.5835,624.5 388.3428,624.2842 Q388.1021,624.0684 388.1021,623.5786 Q388.1021,623.0889 388.3386,622.8772 Q388.5752,622.6655 389.1313,622.6655 L390.5259,622.6655 L390.5259,616.4731 L388.791,616.4731 L388.7412,618.1582 L388.7412,618.3657 Q388.7412,618.7642 388.5212,618.9883 Q388.3013,619.2124 387.9111,619.2124 Q387.4463,619.2124 387.2263,618.9758 Q387.0063,618.7393 387.0063,618.2246 L387.0063,618.1582 L387.0977,615.6763 Q387.1226,614.9375 387.301,614.7881 Q387.4795,614.6387 388.0273,614.6387 L395.166,614.6387 Q395.7139,614.6387 395.8923,614.7881 Q396.0708,614.9375 396.104,615.6763 L396.187,618.1582 L396.187,618.2246 Q396.187,618.7476 395.9795,618.98 Q395.772,619.2124 395.3071,619.2124 Q394.8589,619.2124 394.6638,618.9841 Q394.4688,618.7559 394.4521,618.1582 Z "/><text fill="#000000" font-family="sans-serif" font-size="12" lengthAdjust="spacingAndGlyphs" textLength="25" x="410.5" y="623.5352">user</text><line style="stroke: #A80036; stroke-width: 1.5;" x1="355" x2="460" y1="635" y2="635"/><text fill="#000000" font-family="sans-serif" font-size="11" font-weight="bold" lengthAdjust="spacingAndGlyphs" textLength="11" x="360" y="649.6348">id</text><text fill="#000000" font-family="sans-serif" font-size="11" lengthAdjust="spacingAndGlyphs" textLength="45" x="374" y="649.6348">INTEGER</text><text fill="#000000" font-family="sans-serif" font-size="11" lengthAdjust="spacingAndGlyphs" textLength="95" x="360" y="662.5898">username STRING</text><text fill="#000000" font-family="sans-serif" font-size="11" lengthAdjust="spacingAndGlyphs" textLength="94" x="360" y="675.5449">firstName STRING</text><text fill="#000000" font-family="sans-serif" font-size="11" lengthAdjust="spacingAndGlyphs" textLength="91" x="360" y="688.5">lastName STRING</text><!--class sessiontype--><rect fill="#FEFECE" filter="url(#f8ynpo9aujzum)" height="65.9102" id="sessiontype" style="stroke: #A80036; stroke-width: 1.5;" width="99" x="496" y="616"/><ellipse cx="511" cy="632" fill="#FFAAAA" rx="11" ry="11" style="stroke: #A80036; stroke-width: 1.0;"/><path d="M513.9023,629.4731 L512.1675,629.4731 L512.1675,635.6655 L513.562,635.6655 Q514.1182,635.6655 514.3589,635.8813 Q514.5996,636.0972 514.5996,636.5786 Q514.5996,637.0684 514.3589,637.2842 Q514.1182,637.5 513.562,637.5 L508.6313,637.5 Q508.0835,637.5 507.8428,637.2842 Q507.6021,637.0684 507.6021,636.5786 Q507.6021,636.0889 507.8386,635.8772 Q508.0752,635.6655 508.6313,635.6655 L510.0259,635.6655 L510.0259,629.4731 L508.291,629.4731 L508.2412,631.1582 L508.2412,631.3657 Q508.2412,631.7642 508.0212,631.9883 Q507.8013,632.2124 507.4111,632.2124 Q506.9463,632.2124 506.7263,631.9758 Q506.5063,631.7393 506.5063,631.2246 L506.5063,631.1582 L506.5977,628.6763 Q506.6226,627.9375 506.801,627.7881 Q506.9795,627.6387 507.5273,627.6387 L514.666,627.6387 Q515.2139,627.6387 515.3923,627.7881 Q515.5708,627.9375 515.604,628.6763 L515.687,631.1582 L515.687,631.2246 Q515.687,631.7476 515.4795,631.98 Q515.272,632.2124 514.8071,632.2124 Q514.3589,632.2124 514.1638,631.9841 Q513.9688,631.7559 513.9521,631.1582 Z "/><text fill="#000000" font-family="sans-serif" font-size="12" lengthAdjust="spacingAndGlyphs" textLength="67" x="525" y="636.5352">sessiontype</text><line style="stroke: #A80036; stroke-width: 1.5;" x1="497" x2="594" y1="648" y2="648"/><text fill="#000000" font-family="sans-serif" font-size="11" font-weight="bold" lengthAdjust="spacingAndGlyphs" textLength="11" x="502" y="662.6348">id</text><text fill="#000000" font-family="sans-serif" font-size="11" lengthAdjust="spacingAndGlyphs" textLength="45" x="516" y="662.6348">INTEGER</text><text fill="#000000" font-family="sans-serif" font-size="11" lengthAdjust="spacingAndGlyphs" textLength="65" x="502" y="675.5898">type STRING</text><!--class product--><rect fill="#FEFECE" filter="url(#f8ynpo9aujzum)" height="65.9102" id="product" style="stroke: #A80036; stroke-width: 1.5;" width="83" x="297" y="791.5"/><ellipse cx="314.7" cy="807.5" fill="#FFAAAA" rx="11" ry="11" style="stroke: #A80036; stroke-width: 1.0;"/><path d="M317.6023,804.9731 L315.8675,804.9731 L315.8675,811.1655 L317.262,811.1655 Q317.8182,811.1655 318.0589,811.3813 Q318.2996,811.5972 318.2996,812.0786 Q318.2996,812.5684 318.0589,812.7842 Q317.8182,813 317.262,813 L312.3313,813 Q311.7835,813 311.5428,812.7842 Q311.3021,812.5684 311.3021,812.0786 Q311.3021,811.5889 311.5386,811.3772 Q311.7752,811.1655 312.3313,811.1655 L313.7259,811.1655 L313.7259,804.9731 L311.991,804.9731 L311.9412,806.6582 L311.9412,806.8657 Q311.9412,807.2642 311.7212,807.4883 Q311.5013,807.7124 311.1111,807.7124 Q310.6463,807.7124 310.4263,807.4758 Q310.2063,807.2393 310.2063,806.7246 L310.2063,806.6582 L310.2977,804.1763 Q310.3226,803.4375 310.501,803.2881 Q310.6795,803.1387 311.2273,803.1387 L318.366,803.1387 Q318.9139,803.1387 319.0923,803.2881 Q319.2708,803.4375 319.304,804.1763 L319.387,806.6582 L319.387,806.7246 Q319.387,807.2476 319.1795,807.48 Q318.972,807.7124 318.5071,807.7124 Q318.0589,807.7124 317.8638,807.4841 Q317.6688,807.2559 317.6521,806.6582 Z "/><text fill="#000000" font-family="sans-serif" font-size="12" lengthAdjust="spacingAndGlyphs" textLength="45" x="329.3" y="812.0352">product</text><line style="stroke: #A80036; stroke-width: 1.5;" x1="298" x2="379" y1="823.5" y2="823.5"/><text fill="#000000" font-family="sans-serif" font-size="11" font-weight="bold" lengthAdjust="spacingAndGlyphs" textLength="11" x="303" y="838.1348">id</text><text fill="#000000" font-family="sans-serif" font-size="11" lengthAdjust="spacingAndGlyphs" textLength="45" x="317" y="838.1348">INTEGER</text><text fill="#000000" font-family="sans-serif" font-size="11" lengthAdjust="spacingAndGlyphs" textLength="71" x="303" y="851.0898">name STRING</text><!--class valuesetMap--><rect fill="#FEFECE" filter="url(#f8ynpo9aujzum)" height="78.8652" id="valuesetMap" style="stroke: #A80036; stroke-width: 1.5;" width="110" x="441.5" y="8"/><ellipse cx="459.2" cy="24" fill="#FFAAAA" rx="11" ry="11" style="stroke: #A80036; stroke-width: 1.0;"/><path d="M462.1023,21.4731 L460.3675,21.4731 L460.3675,27.6655 L461.762,27.6655 Q462.3182,27.6655 462.5589,27.8813 Q462.7996,28.0972 462.7996,28.5786 Q462.7996,29.0684 462.5589,29.2842 Q462.3182,29.5 461.762,29.5 L456.8313,29.5 Q456.2835,29.5 456.0428,29.2842 Q455.8021,29.0684 455.8021,28.5786 Q455.8021,28.0889 456.0386,27.8772 Q456.2752,27.6655 456.8313,27.6655 L458.2259,27.6655 L458.2259,21.4731 L456.491,21.4731 L456.4412,23.1582 L456.4412,23.3657 Q456.4412,23.7642 456.2212,23.9883 Q456.0013,24.2124 455.6111,24.2124 Q455.1463,24.2124 454.9263,23.9758 Q454.7063,23.7393 454.7063,23.2246 L454.7063,23.1582 L454.7977,20.6763 Q454.8226,19.9375 455.001,19.7881 Q455.1795,19.6387 455.7273,19.6387 L462.866,19.6387 Q463.4139,19.6387 463.5923,19.7881 Q463.7708,19.9375 463.804,20.6763 L463.887,23.1582 L463.887,23.2246 Q463.887,23.7476 463.6795,23.98 Q463.472,24.2124 463.0071,24.2124 Q462.5589,24.2124 462.3638,23.9841 Q462.1688,23.7559 462.1521,23.1582 Z "/><text fill="#000000" font-family="sans-serif" font-size="12" lengthAdjust="spacingAndGlyphs" textLength="72" x="473.8" y="28.5352">valuesetMap</text><line style="stroke: #A80036; stroke-width: 1.5;" x1="442.5" x2="550.5" y1="40" y2="40"/><text fill="#000000" font-family="sans-serif" font-size="11" font-weight="bold" lengthAdjust="spacingAndGlyphs" textLength="11" x="447.5" y="54.6348">id</text><text fill="#000000" font-family="sans-serif" font-size="11" lengthAdjust="spacingAndGlyphs" textLength="45" x="461.5" y="54.6348">INTEGER</text><text fill="#000000" font-family="sans-serif" font-size="11" lengthAdjust="spacingAndGlyphs" textLength="98" x="447.5" y="67.5898">paramset INTEGER</text><text fill="#000000" font-family="sans-serif" font-size="11" lengthAdjust="spacingAndGlyphs" textLength="92" x="447.5" y="80.5449">valueset INTEGER</text><!--link project to oem--><path d="M254.4592,294.2122 C244.2767,305.8449 235.2372,318.9309 229.5,333 C217.6278,362.1134 219.8494,398.1581 224.1822,424.4871 " fill="none" id="project-oem" style="stroke: #A80036; stroke-width: 1.0;"/><text fill="#000000" font-family="sans-serif" font-size="13" lengthAdjust="spacingAndGlyphs" textLength="129" x="234.5" y="354.0684">project has one OEM</text><text fill="#000000" font-family="sans-serif" font-size="13" lengthAdjust="spacingAndGlyphs" textLength="8" x="238.4764" y="297.0842">1</text><text fill="#000000" font-family="sans-serif" font-size="13" lengthAdjust="spacingAndGlyphs" textLength="8" x="213.8341" y="413.7737">1</text><!--link session to sessiontype--><path d="M455.572,526.1635 C477.7411,556.4453 503.0939,591.0757 521.2169,615.8307 " fill="none" id="session-sessiontype" style="stroke: #A80036; stroke-width: 1.0;"/><text fill="#000000" font-family="sans-serif" font-size="13" lengthAdjust="spacingAndGlyphs" textLength="233" x="489.5" y="569.5684">session type (Porting, APQM, Tuning)</text><text fill="#000000" font-family="sans-serif" font-size="13" lengthAdjust="spacingAndGlyphs" textLength="8" x="452.1169" y="546.3091">1</text><text fill="#000000" font-family="sans-serif" font-size="13" lengthAdjust="spacingAndGlyphs" textLength="8" x="507.3835" y="605.0523">1</text><!--link session to paramset--><path d="M343.455,509.0901 C334.2957,515.1468 324.8162,520.9695 315.5,526 C283.1826,543.4505 263.9444,529.5137 238.5,556 C226.316,568.6829 218.7561,586.215 214.0717,602.641 " fill="none" id="session-paramset" style="stroke: #A80036; stroke-width: 1.0;"/><text fill="#000000" font-family="sans-serif" font-size="13" lengthAdjust="spacingAndGlyphs" textLength="159" x="239.5" y="569.5684">a session has 1 paramset</text><text fill="#000000" font-family="sans-serif" font-size="13" lengthAdjust="spacingAndGlyphs" textLength="8" x="327.5873" y="511.4456">1</text><text fill="#000000" font-family="sans-serif" font-size="13" lengthAdjust="spacingAndGlyphs" textLength="8" x="206.5963" y="592.3348">1</text><!--link session to user--><path d="M407.5,526.1635 C407.5,551.4515 407.5,579.772 407.5,602.8415 " fill="none" id="session-user" style="stroke: #A80036; stroke-width: 1.0;"/><text fill="#000000" font-family="sans-serif" font-size="13" lengthAdjust="spacingAndGlyphs" textLength="50" x="412.5" y="569.5684">done by</text><text fill="#000000" font-family="sans-serif" font-size="13" lengthAdjust="spacingAndGlyphs" textLength="8" x="399.0875" y="546.3091">1</text><text fill="#000000" font-family="sans-serif" font-size="13" lengthAdjust="spacingAndGlyphs" textLength="8" x="398.8875" y="592.2309">1</text><!--link paramset to product--><path d="M275.1539,684.7107 C290.7778,695.7299 305.8803,709.2042 316.5,725 C329.6282,744.5269 335.0534,770.6204 337.2361,791.1869 " fill="none" id="paramset-product" style="stroke: #A80036; stroke-width: 1.0;"/><text fill="#000000" font-family="sans-serif" font-size="13" lengthAdjust="spacingAndGlyphs" textLength="8" x="283.1004" y="685.3914">1</text><text fill="#000000" font-family="sans-serif" font-size="13" lengthAdjust="spacingAndGlyphs" textLength="8" x="328.1998" y="780.7596">1</text><!--link customer to project--><path d="M319.5,83.8959 C319.5,109.1474 319.5,143.5317 319.5,173.6953 " fill="none" id="customer-project" style="stroke: #A80036; stroke-width: 1.0;"/><polygon fill="#A80036" points="319.5,178.8853,323.5,169.8853,319.5,173.8853,315.5,169.8853,319.5,178.8853" style="stroke: #A80036; stroke-width: 1.0;"/><text fill="#000000" font-family="sans-serif" font-size="13" lengthAdjust="spacingAndGlyphs" textLength="135" x="320.5" y="130.5684">A customer may have</text><text fill="#000000" font-family="sans-serif" font-size="13" lengthAdjust="spacingAndGlyphs" textLength="93" x="343.5" y="145.8789">many sessions</text><text fill="#000000" font-family="sans-serif" font-size="13" lengthAdjust="spacingAndGlyphs" textLength="8" x="310.7875" y="104.2952">1</text><text fill="#000000" font-family="sans-serif" font-size="13" lengthAdjust="spacingAndGlyphs" textLength="24" x="294.1125" y="168.4226">0..n</text><!--link project to session--><path d="M354.6256,303.0715 C359.6025,312.9344 364.41,323.1376 368.5,333 C375.9568,350.981 382.723,370.9068 388.4476,389.5596 " fill="none" id="project-session" style="stroke: #A80036; stroke-width: 1.0;"/><polygon fill="#A80036" points="390.0343,394.7842,391.2463,385.0102,388.5813,390,383.5915,387.335,390.0343,394.7842" style="stroke: #A80036; stroke-width: 1.0;"/><text fill="#000000" font-family="sans-serif" font-size="13" lengthAdjust="spacingAndGlyphs" textLength="106" x="380.5" y="346.5684">Project may have</text><text fill="#000000" font-family="sans-serif" font-size="13" lengthAdjust="spacingAndGlyphs" textLength="93" x="389" y="361.8789">many sessions</text><text fill="#000000" font-family="sans-serif" font-size="13" lengthAdjust="spacingAndGlyphs" textLength="8" x="350.2245" y="323.7022">1</text><text fill="#000000" font-family="sans-serif" font-size="13" lengthAdjust="spacingAndGlyphs" textLength="24" x="362.8115" y="384.3788">0..n</text><!--link paramset to valueset--><path d="M137.7978,671.1368 C112.6762,682.9378 86.9036,700.2718 72.5,725 C65.2952,737.3692 63.0667,752.1502 63.3485,766.4877 " fill="none" id="paramset-valueset" style="stroke: #A80036; stroke-width: 1.0;"/><polygon fill="#A80036" points="63.5613,771.7445,67.1939,762.59,63.359,766.7486,59.2005,762.9137,63.5613,771.7445" style="stroke: #A80036; stroke-width: 1.0;"/><text fill="#000000" font-family="sans-serif" font-size="13" lengthAdjust="spacingAndGlyphs" textLength="238" x="73.5" y="738.5684">1 paramset may have many value sets</text><text fill="#000000" font-family="sans-serif" font-size="13" lengthAdjust="spacingAndGlyphs" textLength="8" x="121.846" y="670.3329">1</text><text fill="#000000" font-family="sans-serif" font-size="13" lengthAdjust="spacingAndGlyphs" textLength="24" x="36.3445" y="761.252">0..n</text><!--
@startuml
hide methods
hide stereotypes


class customer as "customer\n(customer in our system)" << (T,#FFAAAA) >> {
<b>id</b> INTEGER
<u><color:green>customername</color></u> STRING
}

class project as "project\n(project for user)" << (T,#FFAAAA) >> {
<b>id</b> INTEGER
<u>customer_id</u> INTEGER
name STRING
description STRING
oracleID INTEGER
created_at DATETIME
}

class oem as "oem\n(oem for project)" << (T,#FFAAAA) >> {
<b>id</b> INTEGER
<u><color:green>oemname</color></u> STRING
}

class session as "session" << (T,#FFAAAA) >> {
<b>id</b> INTEGER
<b>project_id</b> INTEGER
<b>type_id</b> INTEGER
description STRING
finished_at DATETIME
vehicle STRING
done_by(user_Id) INTEGER
state INTEGER
paramset(paramset_id) INTEGER
}

class paramset as "paramset" << (T,#FFAAAA) >>
{
  <b>id</b> INTEGER
  productname STRING
  productversion STRING
  mode STRING
  valueset(id)
}

class valueset as "Value Set" << (T,#FFAAAA) >>
{
  <b>id</b> INTEGER
  name STRING
  short_comment STRING
  comment STRING
  values STRING
}

class user as "user" << (T,#FFAAAA) >>
{
  <b>id</b> INTEGER
  username STRING
  firstName STRING
  lastName STRING
}

class sessiontype as "sessiontype" << (T,#FFAAAA) >>
{
  <b>id</b> INTEGER
  type STRING
}

class product as "product" << (T,#FFAAAA) >>
{
  <b>id</b> INTEGER
  name STRING
}

class valuesetMap as "valuesetMap" << (T,#FFAAAA) >>
{
  <b>id</b> INTEGER
  paramset INTEGER
  valueset INTEGER
}

project "1" - - "1" oem : " project has one OEM"
session "1" - - "1" sessiontype : "session type (Porting, APQM, Tuning)"
session "1" - - "1" paramset : "a session has 1 paramset"
session "1" - - "1" user : " done by"
paramset "1" - - "1" product
customer "1" - -> "0..n" project : "A customer may have\n many sessions"
project "1" - -> "0..n" session : "Project may have\n many sessions"
paramset "1" - -> "0..n" valueset : "1 paramset may have many value sets"
@enduml

PlantUML version 1.2018.14(Fri Dec 21 17:33:16 GMT+01:00 2018)
(GPL source distribution)
Java Runtime: Java(TM) SE Runtime Environment
JVM: Java HotSpot(TM) 64-Bit Server VM
Java Version: 1.6.0_65-b14-468
Operating System: Mac OS X
OS Version: 10.14
Default Encoding: MacRoman
Language: en
Country: US
--></g></svg>