<svg id="streamline_icon" data-name="Layer 2" xmlns="http://www.w3.org/2000/svg" viewBox="0 0 336.86 92.51"><defs><style>.cls-1{fill:#fff;}</style></defs><title>streamline</title><g id="zQgXzO.tif"><path class="cls-1" d="M295.07,119.81a8.23,8.23,0,0,0-6.55-2.56c-46.45,0-92.91,0-139.36.45-3.48,0-9.93,1.3-11.93,5.3s-10,9-19,9-13.52-4.85-14-6c-3-4-3.66-9.59-10.06-10-19.31-1.11-37.71-5-52-16.76l7.52-.36c-1.13-3.49-4-3.5-5.79-4.31C49.38,86.1,57.59,81.36,66,76.12,108.51,49.5,154.41,36.81,204.58,40c7.92.5,14.92,2.81,20.4,9,7.24,8.14,16.05,11.72,27.32,11.31,29.45-1,58.92-.49,88.36,1,3.4.16,8.37-.24,9,3.76,1.24,8.48,9.61,10,14.61,14,5.36,4.29,14,10,14.7,15.06s-1.78,8.23-4.7,12.94-5.81,4.6-9.43,5.32c-7.5,1.48-15,2.88-22.58,4-3.15.46-5.27,1.29-7,4.38a19.24,19.24,0,0,1-18,10.5c-9-.11-13-2.19-16-5.19M285.36,75.24c19.56,2.26,38.93,5.17,57.62,11.68,2.71,1,5.81.82,8.75,1a2.26,2.26,0,0,0,2.12-.71c.61-.75-.45-1.58-.91-2.19-2.73-3.63-6.76-5.57-10.85-6.73C315,70.65,287.2,70.18,259.2,70.69,267.92,72.24,276.58,74.22,285.36,75.24Zm-156.92-8.8c11.14-6.54,20.72-14.74,35.06-17.57-24.4.35-54.08,11.15-79,28.56l46.78-10Zm54.79-6.62c10.32,0,20.68.33,31,.18,2.71,0,9,.5,10-1s.76-2-1-4c-11.24-12.59-32-12-45,3C176.38,60.14,180.44,59.82,183.23,59.82Zm-70.44,15.8c-20.47,3.27-40.75,7.07-57.33,21C74.8,90.27,93.16,81.21,112.79,75.62Zm186.43,40.5c4.81,7.82,9.91,10.77,16.36,10.73s11.92-2.93,16.6-10.23A294.38,294.38,0,0,1,299.22,116.12Zm-194,.88c4,13,22,13,28,0Z" transform="translate(-42.18 -39.49)"/></g></svg>
